<?xml version="1.0" encoding="utf-8"?>
<!-- Generator: Adobe Illustrator 26.0.0, SVG Export Plug-In . SVG Version: 6.00 Build 0)  -->
<svg version="1.1" id="Camada_1" xmlns="http://www.w3.org/2000/svg" xmlns:xlink="http://www.w3.org/1999/xlink" x="0px" y="0px"
	 viewBox="0 0 1080 1080" style="enable-background:new 0 0 1080 1080;" xml:space="preserve">
<style type="text/css">
	.st0{fill:#FFFFFF;}
</style>
<path class="st0" d="M191.57,795.74c65.72,0,129.55-0.11,193.37,0.13c8.82,0.03,15.85-1.47,22.21-8.41
	c76-83.07,152.11-166.04,228.64-248.63c7.44-8.03,4.67-12.01-1.17-18.34c-75.39-81.74-150.55-163.69-225.89-245.47
	c-4.49-4.88-8.01-10.94-16.68-10.89c-56.56,0.33-113.13,0.17-173.82,0.17c33.53,36.71,64.37,70.53,95.27,104.29
	c40.14,43.85,79.95,88.01,120.79,131.22c10.05,10.63,11.09,16.34,0.42,27.76c-76.85,82.31-152.86,165.4-228.97,248.39
	C200.75,781.37,194.1,785.83,191.57,795.74z"/>
<g>
	<path class="st0" d="M888.3,264.19c-70.11,0-134.57,0.19-199.03-0.21c-9.32-0.06-15.6,2.99-21.64,9.64
		c-29.58,32.62-59.28,65.13-89.46,97.19c-6.57,6.99-7.24,11.31-0.42,18.58c30.62,32.62,61.02,65.45,90.73,98.9
		c9.08,10.22,12.52,2.25,17.33-2.99c50.58-55.1,101.1-110.26,151.62-165.41C853.31,302.55,869.13,285.18,888.3,264.19z"/>
	<path class="st0" d="M888.43,795.88c-33.7-36.76-63.77-69.59-93.86-102.38C758.66,654.37,722.45,615.52,687,576
		c-8.46-9.44-12.92-10.75-22.02-0.2c-22.79,26.44-46.84,51.84-71.03,77.04c-7.38,7.69-7.58,12.13-0.01,20.15
		c35.48,37.61,70.29,75.84,105.02,114.15c5.66,6.25,11.56,8.92,19.99,8.88C773.48,795.74,828.02,795.88,888.43,795.88z"/>
</g>
</svg>
